<svg xmlns="http://www.w3.org/2000/svg" viewBox="0 0 480 360">
  <defs>
    <linearGradient id="cableGrad" x1="0" x2="1" y1="0" y2="1">
      <stop offset="0%" stop-color="#eef2ff"/>
      <stop offset="100%" stop-color="#c7d2fe"/>
    </linearGradient>
  </defs>
  <rect width="480" height="360" rx="34" fill="#fff" stroke="#c7d2fe" stroke-width="8"/>
  <path d="M120 220c0-20 60-34 100-34s100 14 100 34" fill="none" stroke="#0d6efd" stroke-width="24" stroke-linecap="round"/>
  <path d="M120 220h-18a16 16 0 0 1-16-16v-40a16 16 0 0 1 16-16h18" fill="#0d6efd"/>
  <path d="M320 220h18a16 16 0 0 0 16-16v-40a16 16 0 0 0-16-16h-18" fill="#0d6efd"/>
  <circle cx="130" cy="200" r="12" fill="#fff"/>
  <circle cx="350" cy="200" r="12" fill="#fff"/>
  <text x="240" y="310" fill="#1e293b" font-size="28" font-family="Inter, sans-serif" text-anchor="middle">USB-C</text>
</svg>